<?xml version="1.0" encoding="utf-8"?>
<!-- Generator: Adobe Illustrator 17.1.0, SVG Export Plug-In . SVG Version: 6.00 Build 0)  -->
<!DOCTYPE svg PUBLIC "-//W3C//DTD SVG 1.1//EN" "http://www.w3.org/Graphics/SVG/1.1/DTD/svg11.dtd">
<svg version="1.1" id="Layer_1" xmlns="http://www.w3.org/2000/svg" xmlns:xlink="http://www.w3.org/1999/xlink" x="0px" y="0px"
	 viewBox="0 0 14 14" enable-background="new 0 0 14 14" xml:space="preserve">
<path fill="#231F20" d="M6,12c0,0.6-0.4,1-1,1H2c-0.6,0-1-0.4-1-1V6c0-0.6,0.4-1,1-1h3c0.6,0,1,0.4,1,1V12z M12,6c0-0.6-0.4-1-1-1H8
	C7.4,5,7,5.4,7,6v6c0,0.6,0.4,1,1,1h3c0.6,0,1-0.4,1-1V6z M12,2c0-0.6-0.4-1-1-1H2C1.4,1,1,1.4,1,2v1c0,0.6,0.4,1,1,1h9
	c0.6,0,1-0.4,1-1V2z"/>
</svg>
