<?xml version="1.0" encoding="utf-8"?>
<!-- Generator: Adobe Illustrator 17.1.0, SVG Export Plug-In . SVG Version: 6.00 Build 0)  -->
<!DOCTYPE svg PUBLIC "-//W3C//DTD SVG 1.1//EN" "http://www.w3.org/Graphics/SVG/1.1/DTD/svg11.dtd">
<svg version="1.1" id="Layer_2" xmlns="http://www.w3.org/2000/svg" xmlns:xlink="http://www.w3.org/1999/xlink" x="0px" y="0px"
	 viewBox="0 0 14 14" enable-background="new 0 0 14 14" xml:space="preserve">
<path d="M14,3c0,0.6-0.4,1-1,1H6C5.4,4,5,3.6,5,3V1c0-0.6,0.4-1,1-1h7c0.6,0,1,0.4,1,1V3z M14,6c0-0.6-0.4-1-1-1H6C5.4,5,5,5.4,5,6
	v2c0,0.6,0.4,1,1,1h7c0.6,0,1-0.4,1-1V6z M14,11c0-0.6-0.4-1-1-1H6c-0.6,0-1,0.4-1,1v2c0,0.6,0.4,1,1,1h7c0.6,0,1-0.4,1-1V11z M2,3
	l2-1.5L2,0v1H0v1h2V3z M2,8l2-1.5L2,5v1H0v1h2V8z M2,13l2-1.5L2,10v1H0v1h2V13z"/>
</svg>
