<?xml version="1.0" encoding="utf-8"?>
<!-- Generator: Adobe Illustrator 17.1.0, SVG Export Plug-In . SVG Version: 6.00 Build 0)  -->
<!DOCTYPE svg PUBLIC "-//W3C//DTD SVG 1.1//EN" "http://www.w3.org/Graphics/SVG/1.1/DTD/svg11.dtd">
<svg version="1.1" id="Layer_2" xmlns="http://www.w3.org/2000/svg" xmlns:xlink="http://www.w3.org/1999/xlink" x="0px" y="0px"
	 viewBox="0 0 14 14" enable-background="new 0 0 14 14" xml:space="preserve">
<path d="M2,11H1.5C0.7,11,0,10.3,0,9.5v-8C0,0.7,0.7,0,1.5,0h8C10.3,0,11,0.7,11,1.5V2H3.5C2.7,2,2,2.7,2,3.5V11z M14,4.5v8
	c0,0.8-0.7,1.5-1.5,1.5h-8C3.7,14,3,13.3,3,12.5v-8C3,3.7,3.7,3,4.5,3h8C13.3,3,14,3.7,14,4.5z M12,7.2L12,7.2
	c-0.6-0.5-1.4-0.5-1.9-0.1L7.2,9.3L6.1,7.6L5.2,8.3L6.2,10l0,0l0.7,1L12,7.2z"/>
</svg>
