<?xml version="1.0" encoding="utf-8"?>
<!-- Generator: Adobe Illustrator 17.1.0, SVG Export Plug-In . SVG Version: 6.00 Build 0)  -->
<!DOCTYPE svg PUBLIC "-//W3C//DTD SVG 1.1//EN" "http://www.w3.org/Graphics/SVG/1.1/DTD/svg11.dtd">
<svg version="1.1" id="Layer_2" xmlns="http://www.w3.org/2000/svg" xmlns:xlink="http://www.w3.org/1999/xlink" x="0px" y="0px"
	 viewBox="0 0 14 14" enable-background="new 0 0 14 14" xml:space="preserve">
<path d="M9.1,6.9c0,0.8-0.2,1.4-0.7,1.4C8,8.3,7.8,7.8,7.8,7c0-0.9,0.3-1.4,0.7-1.4C8.9,5.6,9.1,6.1,9.1,6.9z M0,5v4h2.5
	C2.5,9,2,8.2,2,7c0-1.2,0.5-2,0.5-2H0z M11,7c0,2.2-1.8,4-4,4S3,9.2,3,7c0-2.2,1.8-4,4-4S11,4.8,11,7z M5.6,5.2H5.2L4.5,5.7L4.6,6
	l0.5-0.3v2.9h0.5V5.2z M6.9,8.3C6.9,8.1,6.8,8,6.6,8C6.5,8,6.3,8.1,6.3,8.3c0,0.2,0.1,0.3,0.3,0.3C6.8,8.6,6.9,8.5,6.9,8.3z
	 M9.6,6.9c0-1.1-0.4-1.7-1.1-1.7C7.8,5.2,7.3,5.8,7.3,7c0,1.1,0.4,1.7,1.1,1.7C9.1,8.6,9.6,8,9.6,6.9z M11.5,5c0,0,0.5,0.8,0.5,2
	c0,1.2-0.5,2-0.5,2H14V5H11.5z"/>
</svg>
