<?xml version="1.0" encoding="utf-8"?>
<!-- Generator: Adobe Illustrator 17.1.0, SVG Export Plug-In . SVG Version: 6.00 Build 0)  -->
<!DOCTYPE svg PUBLIC "-//W3C//DTD SVG 1.1//EN" "http://www.w3.org/Graphics/SVG/1.1/DTD/svg11.dtd">
<svg version="1.1" id="Layer_1" xmlns="http://www.w3.org/2000/svg" xmlns:xlink="http://www.w3.org/1999/xlink" x="0px" y="0px"
	 viewBox="0 0 14 14" enable-background="new 0 0 14 14" xml:space="preserve">
<path d="M0.3,2C0.2,1.9,0.1,1.7,0,1.6c0.1-0.1,0.2-0.2,0.3-0.2C0.7,1,1,0.7,1.4,0.4C1.6,0.2,1.8,0.1,2,0.1c0.3,0,0.6,0.1,0.8,0.4
	C2.9,0.7,3,1,3,1.3c0.1,0.6,0.2,1.3,0.4,1.9c0,0.2,0.1,0.3,0.2,0.5C3.7,3.8,3.8,3.8,4,3.7c0.1,0,0.1-0.1,0.1-0.1
	c0.3-0.4,0.6-0.8,0.7-1.2c0-0.1,0.1-0.3,0.1-0.4c0-0.2-0.1-0.4-0.4-0.4c-0.1,0-0.2,0-0.3,0C4.1,1.5,4,1.6,4,1.6c0,0,0,0,0,0
	c0.1-0.5,0.4-0.9,0.8-1.2C5.2,0,5.7-0.1,6.2,0.1c0.4,0.1,0.6,0.4,0.6,0.7c0.1,0.5,0,1-0.2,1.5c-0.2,0.5-0.5,1-0.8,1.4
	C5.4,4.2,5,4.7,4.5,5.2c-0.3,0.3-0.6,0.5-1,0.7C3.1,6,2.7,5.9,2.4,5.5C2.2,5.2,2.1,4.9,2,4.5C1.8,3.8,1.6,3.1,1.4,2.5
	C1.4,2.3,1.3,2.1,1.2,1.9c0-0.1-0.1-0.1-0.2-0.2c-0.1-0.1-0.2-0.1-0.3,0C0.6,1.8,0.5,1.9,0.3,2z M13.4,13.9C11.1,14,9,14,6.6,13.9
	c-0.8-1.5-0.8-3.3,0-4.8C9,9,11.1,9,13.4,9.1C14.2,10.6,14.2,12.4,13.4,13.9z M11.4,11.5L9,9.9v3.1L11.4,11.5z M11.2,2.5l-0.7-0.7
	L2,10.3L2.7,11L11.2,2.5z"/>
</svg>
