<?xml version="1.0" encoding="utf-8"?>
<!-- Generator: Adobe Illustrator 17.1.0, SVG Export Plug-In . SVG Version: 6.00 Build 0)  -->
<!DOCTYPE svg PUBLIC "-//W3C//DTD SVG 1.1//EN" "http://www.w3.org/Graphics/SVG/1.1/DTD/svg11.dtd">
<svg version="1.1" id="Layer_1_copy" xmlns="http://www.w3.org/2000/svg" xmlns:xlink="http://www.w3.org/1999/xlink" x="0px"
	 y="0px" viewBox="0 0 14 14" enable-background="new 0 0 14 14" xml:space="preserve">
<path d="M10.2,4.2c0,2-2,4-3.2,4c-0.9,0-3.2-2-3.2-4S5.3,1,7,1S10.2,2.2,10.2,4.2z M0.9,12.3c0,0.4,0.3,0.7,0.8,0.7h10.6
	c0.4,0,0.8-0.3,0.8-0.7l-0.2-0.9C12.6,9.8,11.7,7.7,9,7.7C8.9,7.7,7.7,9,7.2,9.5c-0.1,0.1-0.3,0.1-0.4,0C6.3,9,5.1,7.7,5,7.7
	c-2.7,0-3.6,2.1-3.9,3.6L0.9,12.3z"/>
</svg>
