<?xml version="1.0" encoding="utf-8"?>
<!-- Generator: Adobe Illustrator 17.1.0, SVG Export Plug-In . SVG Version: 6.00 Build 0)  -->
<!DOCTYPE svg PUBLIC "-//W3C//DTD SVG 1.1//EN" "http://www.w3.org/Graphics/SVG/1.1/DTD/svg11.dtd">
<svg version="1.1" id="Layer_2" xmlns="http://www.w3.org/2000/svg" xmlns:xlink="http://www.w3.org/1999/xlink" x="0px" y="0px"
	 viewBox="0 0 14 14" enable-background="new 0 0 14 14" xml:space="preserve">
<path d="M3.5,2H13l-1,5L5,8v2h7h0.5c0.3,0,0.5,0.2,0.5,0.5l0,0c0,0.3-0.2,0.5-0.5,0.5h-9C3.2,11,3,10.8,3,10.5l0,0
	C3,10.2,3.2,10,3.5,10H4V8L3,3c0,0-0.1-1-0.5-1h-2C0.2,2,0,1.8,0,1.5l0,0C0,1.2,0.2,1,0.5,1h2C2.8,1,3,1.2,3,1.5l0,0
	C3,1.9,3.5,2,3.5,2z M5,10.5 M7,1.5 M4.5,11.7c-0.5,0-0.8,0.4-0.8,0.8s0.4,0.8,0.8,0.8c0.5,0,0.8-0.4,0.8-0.8S5,11.7,4.5,11.7
	 M4.5,11.2c0.7,0,1.2,0.6,1.2,1.2s-0.6,1.2-1.2,1.2s-1.2-0.6-1.2-1.2S3.8,11.2,4.5,11.2L4.5,11.2z M11.5,11.7
	c-0.5,0-0.8,0.4-0.8,0.8s0.4,0.8,0.8,0.8c0.5,0,0.8-0.4,0.8-0.8S12,11.7,11.5,11.7 M11.5,11.2c0.7,0,1.2,0.6,1.2,1.2
	s-0.6,1.2-1.2,1.2s-1.2-0.6-1.2-1.2S10.8,11.2,11.5,11.2L11.5,11.2z"/>
</svg>
