<?xml version="1.0" encoding="utf-8"?>
<!-- Generator: Adobe Illustrator 17.1.0, SVG Export Plug-In . SVG Version: 6.00 Build 0)  -->
<!DOCTYPE svg PUBLIC "-//W3C//DTD SVG 1.1//EN" "http://www.w3.org/Graphics/SVG/1.1/DTD/svg11.dtd">
<svg version="1.1" id="Layer_1" xmlns="http://www.w3.org/2000/svg" xmlns:xlink="http://www.w3.org/1999/xlink" x="0px" y="0px"
	 viewBox="0 0 14 14" enable-background="new 0 0 14 14" xml:space="preserve">
<path d="M2.8,10.1L6,12L4.8,14l-4.3,0L2.8,10.1z M13.5,4.3L10,9.6c-0.6,1-2,1.4-3,0.7l0,0l-0.7,1.2L3.1,9.6l0.7-1.2
	c-1-0.6-1.4-2-0.7-3L6.4,0L13.5,4.3z M9.2,4.1c0-0.1-0.3-0.6-0.3-0.6c0,0-0.1-0.1-0.1-0.1L5,4.3c0,0,0,0.1,0,0.1c0,0.1,0,0.6,0,0.7
	c0,0,0,0.1,0,0.1c0,0,0,0,0-0.1c0,0,0-0.1,0.1-0.2c0.1-0.2,0.2-0.3,0.6-0.4c0.3-0.1,0.6-0.2,1-0.2L7.4,7c0.2,0.6,0.3,1.1,0.3,1.4
	c0,0.2,0,0.3-0.1,0.4c-0.1,0-0.1,0.1-0.2,0.1c0,0,0,0,0,0.1c0,0,0,0,0.1,0c0.2,0,0.6-0.2,0.6-0.2c0,0,0.4-0.1,0.8-0.2
	C9,8.6,9,8.6,9,8.5c0,0,0,0-0.1,0c-0.1,0-0.2,0-0.3,0c-0.2,0-0.3-0.1-0.3-0.3C8.2,8,8.1,7.5,7.9,6.9L7.2,4.1C7.5,4.1,7.8,4,8,3.9
	l0.2-0.1C8.7,3.8,8.8,3.8,8.9,4C9,4,9,4.1,9.2,4.1C9.1,4.2,9.1,4.2,9.2,4.1C9.2,4.2,9.2,4.1,9.2,4.1z"/>
</svg>
