<?xml version="1.0" encoding="utf-8"?>
<!-- Generator: Adobe Illustrator 17.1.0, SVG Export Plug-In . SVG Version: 6.00 Build 0)  -->
<!DOCTYPE svg PUBLIC "-//W3C//DTD SVG 1.1//EN" "http://www.w3.org/Graphics/SVG/1.1/DTD/svg11.dtd">
<svg version="1.1" id="Layer_2" xmlns="http://www.w3.org/2000/svg" xmlns:xlink="http://www.w3.org/1999/xlink" x="0px" y="0px"
	 viewBox="0 0 14 14" enable-background="new 0 0 14 14" xml:space="preserve">
<path d="M5,5c0,1.1-0.9,2-2,2S1,6.1,1,5s0.9-2,2-2S5,3.9,5,5z M1,7v1h12V7c0,0-1,0-1,0c0.6,0,1-0.4,1-1V4c0-0.6-0.4-1-1-1h-2
	C9.4,3,9,3.4,9,4v2c0,0.6,0.4,1,1,1H1z M7,8l-4,4h8L7,8z"/>
</svg>
