<?xml version="1.0" encoding="utf-8"?>
<!-- Generator: Adobe Illustrator 18.0.0, SVG Export Plug-In . SVG Version: 6.00 Build 0)  -->
<!DOCTYPE svg PUBLIC "-//W3C//DTD SVG 1.1//EN" "http://www.w3.org/Graphics/SVG/1.1/DTD/svg11.dtd">
<svg version="1.1" id="Layer_1" xmlns="http://www.w3.org/2000/svg" xmlns:xlink="http://www.w3.org/1999/xlink" x="0px" y="0px"
	 viewBox="0 0 14 14" enable-background="new 0 0 14 14" xml:space="preserve">
<path d="M4.4,5.5H3.6L4,4L4.4,5.5z M13,3.7v6.5c0,1-0.8,1.7-1.7,1.7H2.7c-1,0-1.7-0.8-1.7-1.7V3.7C1,2.8,1.8,2,2.7,2h8.5
	C12.2,2,13,2.8,13,3.7z M2,8h1l0.4-1.5l1.1,0L5,8h1L4.6,3H3.4L2,8z M12,9.2C12,9.1,11.9,9,11.8,9H2.2C2.1,9,2,9.1,2,9.2v1.5
	C2,10.9,2.1,11,2.2,11h9.5c0.1,0,0.2-0.1,0.2-0.2V9.2z M12,6.2C12,6.1,11.9,6,11.8,6H7.2C7.1,6,7,6.1,7,6.2v1.5C7,7.9,7.1,8,7.2,8
	h4.5C11.9,8,12,7.9,12,7.8V6.2z M12,3.2C12,3.1,11.9,3,11.8,3H7.2C7.1,3,7,3.1,7,3.2v1.5C7,4.9,7.1,5,7.2,5h4.5
	C11.9,5,12,4.9,12,4.8V3.2z"/>
</svg>
