<?xml version="1.0" encoding="utf-8"?>
<!-- Generator: Adobe Illustrator 17.1.0, SVG Export Plug-In . SVG Version: 6.00 Build 0)  -->
<!DOCTYPE svg PUBLIC "-//W3C//DTD SVG 1.1//EN" "http://www.w3.org/Graphics/SVG/1.1/DTD/svg11.dtd">
<svg version="1.1" id="Layer_1" xmlns="http://www.w3.org/2000/svg" xmlns:xlink="http://www.w3.org/1999/xlink" x="0px" y="0px"
	 viewBox="0 0 14 14" enable-background="new 0 0 14 14" xml:space="preserve">
<path d="M13,5h-3V4c0-0.6-0.4-1-1-1H1C0.4,3,0,3.4,0,4v3c0,0.6,0.4,1,1,1h1v2c0,0.6,0.4,1,1,1h10c0.6,0,1-0.4,1-1V6
	C14,5.4,13.6,5,13,5z M1.5,7C1.2,7,1,6.8,1,6.5v-2C1,4.2,1.2,4,1.5,4h7C8.8,4,9,4.2,9,4.5V5H3C2.4,5,2,5.4,2,6v1H1.5z M13,9.5
	c0,0.3-0.2,0.5-0.5,0.5h-9C3.2,10,3,9.8,3,9.5V8h6c0.6,0,1-0.4,1-1V6h2.5C12.8,6,13,6.2,13,6.5V9.5z"/>
</svg>
