<?xml version="1.0" encoding="utf-8"?>
<!-- Generator: Adobe Illustrator 18.0.0, SVG Export Plug-In . SVG Version: 6.00 Build 0)  -->
<!DOCTYPE svg PUBLIC "-//W3C//DTD SVG 1.1//EN" "http://www.w3.org/Graphics/SVG/1.1/DTD/svg11.dtd">
<svg version="1.1" id="Layer_3" xmlns="http://www.w3.org/2000/svg" xmlns:xlink="http://www.w3.org/1999/xlink" x="0px" y="0px"
	 viewBox="0 0 14 14" enable-background="new 0 0 14 14" xml:space="preserve">
<path d="M8.7,7.3L7,9h4l1,1H0l6-6l1,1L3,9h2l3-3l0.1,0.1C8,6,8,5.9,8,5.8h2.5c0.1,0,0.2,0,0.2-0.1c0.1-0.1,0.1-0.1,0.1-0.2V3.1
	c0.6,0.1,1.1,0.4,1.5,0.8c0.4,0.5,0.6,1,0.6,1.6c0,0.7-0.2,1.3-0.7,1.8C11.8,7.8,11.2,8,10.5,8C9.9,8,9.3,7.8,8.8,7.4
	C8.8,7.3,8.8,7.3,8.7,7.3z M10.2,3.1C9.6,3.1,9.1,3.3,8.7,3.8C8.3,4.2,8.1,4.6,8,5.2h2.2V3.1z"/>
</svg>
