<?xml version="1.0" encoding="utf-8"?>
<!-- Generator: Adobe Illustrator 17.1.0, SVG Export Plug-In . SVG Version: 6.00 Build 0)  -->
<!DOCTYPE svg PUBLIC "-//W3C//DTD SVG 1.1//EN" "http://www.w3.org/Graphics/SVG/1.1/DTD/svg11.dtd">
<svg version="1.1" id="Layer_1" xmlns="http://www.w3.org/2000/svg" xmlns:xlink="http://www.w3.org/1999/xlink" x="0px" y="0px"
	 viewBox="0 0 14 14" enable-background="new 0 0 14 14" xml:space="preserve">
<path d="M7.2,8.4l3.5,3.6H3.5L7.2,8.4z M13.9,5.3L0,9c0,0,0.3,1.2,1.5,0.9c1.2-0.3,10.5-2.8,11.6-3.1C14.2,6.5,13.9,5.3,13.9,5.3z
	 M12,2.7c-0.1-0.3-0.4-0.5-0.7-0.4L8.9,2.9C8.6,3,8.4,3.3,8.5,3.6L9.1,6c0.1,0.3,0.4,0.5,0.7,0.4l2.3-0.6c0.3-0.1,0.5-0.4,0.4-0.7
	L12,2.7z M2.5,4.7c1,0,1.8,0.8,1.8,1.8S3.5,8.3,2.5,8.3S0.8,7.5,0.8,6.5S1.5,4.7,2.5,4.7L2.5,4.7z"/>
</svg>
