<?xml version="1.0" encoding="utf-8"?>
<!-- Generator: Adobe Illustrator 17.1.0, SVG Export Plug-In . SVG Version: 6.00 Build 0)  -->
<!DOCTYPE svg PUBLIC "-//W3C//DTD SVG 1.1//EN" "http://www.w3.org/Graphics/SVG/1.1/DTD/svg11.dtd">
<svg version="1.1" id="Layer_1" xmlns="http://www.w3.org/2000/svg" xmlns:xlink="http://www.w3.org/1999/xlink" x="0px" y="0px"
	 viewBox="0 0 14 14" enable-background="new 0 0 14 14" xml:space="preserve">
<path d="M11,4C9.5,4,8.3,5.1,8.1,6.5H5.9C5.7,5.1,4.5,4,3,4C1.3,4,0,5.4,0,7s1.3,3,3,3c1.5,0,2.7-1.1,2.9-2.5H8
	C8.3,8.9,9.5,10,11,10c1.7,0,3-1.3,3-3S12.6,4,11,4z M3,9C1.9,9,1,8.1,1,7s0.9-2,2-2c1.1,0,2,0.9,2,2S4.1,9,3,9z"/>
</svg>
