<?xml version="1.0" encoding="utf-8"?>
<!-- Generator: Adobe Illustrator 17.1.0, SVG Export Plug-In . SVG Version: 6.00 Build 0)  -->
<!DOCTYPE svg PUBLIC "-//W3C//DTD SVG 1.1//EN" "http://www.w3.org/Graphics/SVG/1.1/DTD/svg11.dtd">
<svg version="1.1" id="Layer_3" xmlns="http://www.w3.org/2000/svg" xmlns:xlink="http://www.w3.org/1999/xlink" x="0px" y="0px"
	 viewBox="0 0 14 14" enable-background="new 0 0 14 14" xml:space="preserve">
<path d="M3,11H0.6c-0.2,0-0.3-0.1-0.4-0.2S0,10.5,0,10.4V0.6c0-0.2,0.1-0.3,0.2-0.4C0.3,0.1,0.4,0,0.6,0l0,0h6.8
	c0.2,0,0.3,0.1,0.4,0.2C7.9,0.3,8,0.5,8,0.6V1L4,1c0,0-1,0-1,1S3,11,3,11z M9.8,7C9.5,7,9.4,6.9,9.2,6.8C9.1,6.6,9,6.5,9,6.2V2H4.8
	C4.5,2,4.4,2.1,4.2,2.2C4.1,2.4,4,2.5,4,2.8v10.5c0,0.2,0.1,0.4,0.2,0.5C4.4,13.9,4.5,14,4.8,14h8.5c0.2,0,0.4-0.1,0.5-0.2
	c0.1-0.1,0.2-0.3,0.2-0.5V7H9.8z M13.5,5L11,2.5c-0.3-0.3-0.6-0.4-1-0.5v4h4C13.9,5.6,13.7,5.2,13.5,5z"/>
</svg>
