<?xml version="1.0" encoding="utf-8"?>
<!-- Generator: Adobe Illustrator 17.1.0, SVG Export Plug-In . SVG Version: 6.00 Build 0)  -->
<!DOCTYPE svg PUBLIC "-//W3C//DTD SVG 1.1//EN" "http://www.w3.org/Graphics/SVG/1.1/DTD/svg11.dtd">
<svg version="1.1" id="Layer_3" xmlns="http://www.w3.org/2000/svg" xmlns:xlink="http://www.w3.org/1999/xlink" x="0px" y="0px"
	 viewBox="0 0 14 14" enable-background="new 0 0 14 14" xml:space="preserve">
<path d="M4,4L3,4c0.3-0.4,0.6-0.7,1-1L4,4z M4,1.8L4,0H2c0,0-2,0-2,2c0,2,0,2,0,2l1.8,0C2.3,3.1,3.1,2.3,4,1.8z M1.8,10L0,10v2
	c0,0,0,2,2,2c2,0,2,0,2,0l0-1.8C3.1,11.7,2.3,10.9,1.8,10z M3,10c0.3,0.4,0.6,0.7,1,1l0-1L3,10z M10,3l0,1l1,0
	C10.7,3.6,10.4,3.3,10,3z M12.2,4L14,4V2c0,0,0-2-1.9-2c-2,0-2,0-2,0l0,1.8C10.9,2.3,11.7,3.1,12.2,4z M10,12.2V14h2c0,0,2,0,2-2
	c0-2,0-2,0-2l-1.8,0C11.7,10.9,10.9,11.7,10,12.2z M10,11c0.4-0.3,0.7-0.6,1-1l-1,0V11z M5,9h4V5H5V9z M10,9h1.6
	C11.8,8.4,12,7.7,12,7s-0.2-1.4-0.4-2H10V9z M12.7,9H14V5h-1.3C12.9,5.6,13,6.3,13,7S12.9,8.4,12.7,9z M4,5H2.4C2.2,5.6,2,6.3,2,7
	s0.2,1.4,0.4,2H4V5z M1.3,5H0v4h1.3C1.1,8.4,1,7.7,1,7S1.1,5.6,1.3,5z M5,12.7V14h4v-1.3C8.4,12.9,7.7,13,7,13S5.6,12.9,5,12.7z
	 M5,10v1.6C5.6,11.8,6.3,12,7,12s1.4-0.2,2-0.4V10H5z M9,4V2.4C8.4,2.2,7.7,2,7,2S5.6,2.2,5,2.4V4H9z M9,1.3V0H5v1.3
	C5.6,1.1,6.3,1,7,1S8.4,1.1,9,1.3z"/>
</svg>
