<?xml version="1.0" encoding="utf-8"?>
<!-- Generator: Adobe Illustrator 17.1.0, SVG Export Plug-In . SVG Version: 6.00 Build 0)  -->
<!DOCTYPE svg PUBLIC "-//W3C//DTD SVG 1.1//EN" "http://www.w3.org/Graphics/SVG/1.1/DTD/svg11.dtd">
<svg version="1.1" id="Layer_2" xmlns="http://www.w3.org/2000/svg" xmlns:xlink="http://www.w3.org/1999/xlink" x="0px" y="0px"
	 viewBox="0 0 14 14" enable-background="new 0 0 14 14" xml:space="preserve">
<path d="M5,3c0,0.6-0.4,1-1,1H2C1.4,4,1,3.6,1,3V1c0-0.6,0.4-1,1-1h2c0.6,0,1,0.4,1,1V3z M5,6c0-0.6-0.4-1-1-1H2C1.4,5,1,5.4,1,6v2
	c0,0.6,0.4,1,1,1h2c0.6,0,1-0.4,1-1V6z M5,11c0-0.6-0.4-1-1-1H2c-0.6,0-1,0.4-1,1v2c0,0.6,0.4,1,1,1h2c0.6,0,1-0.4,1-1V11z M10,1
	c0-0.6-0.4-1-1-1H7C6.4,0,6,0.4,6,1v2c0,0.6,0.4,1,1,1h2c0.6,0,1-0.4,1-1V1z M10,6c0-0.6-0.4-1-1-1H7C6.4,5,6,5.4,6,6v2
	c0,0.6,0.4,1,1,1h2c0.6,0,1-0.4,1-1V6z M10,11c0-0.6-0.4-1-1-1H7c-0.6,0-1,0.4-1,1v2c0,0.6,0.4,1,1,1h2c0.6,0,1-0.4,1-1V11z M12,4
	h0.8V0h-0.6c0,0.2-0.1,0.4-0.3,0.5c-0.2,0.1-0.7,0.1-0.7,0.1v0.6H12V4z M13.5,9V8.4H12c0-0.3,0.9-1,0.9-1c0.1-0.1,0.6-0.5,0.6-1.3
	c0-1-0.8-1.1-1.2-1.1c-0.4,0-0.7,0.1-0.9,0.3c-0.3,0.3-0.3,1-0.3,1h0.7c0-0.2-0.1-0.8,0.4-0.8c0.3,0,0.4,0.1,0.4,0.5
	c0,0.1,0,0.5-0.2,0.7c-0.2,0.2-0.8,0.8-0.9,0.9c-0.4,0.5-0.5,1.1-0.5,1.3H13.5z M11.8,12.8H11v0c0,0.4,0.1,0.7,0.3,0.9
	c0.2,0.2,0.5,0.3,0.9,0.3c0.3,0,1,0,1.3-0.8c0.1-0.7,0-0.9-0.1-1s-0.3-0.3-0.6-0.3v0c0.2,0,0.6-0.2,0.6-0.9c0-0.9-0.8-1-1.1-1
	c-1,0-1.2,0.7-1.2,1.1h0.7c0,0,0-0.6,0.4-0.6c0.3,0,0.4,0.3,0.4,0.5c0,0.4-0.1,0.4-0.2,0.5c-0.1,0-0.4,0-0.4,0v0.6c0,0,0.4,0,0.5,0
	c0.2,0.1,0.3,0.3,0.3,0.6c0,0.3,0,0.6-0.4,0.6C11.7,13.5,11.8,13,11.8,12.8z"/>
</svg>
