<?xml version="1.0" encoding="utf-8"?>
<!-- Generator: Adobe Illustrator 17.1.0, SVG Export Plug-In . SVG Version: 6.00 Build 0)  -->
<!DOCTYPE svg PUBLIC "-//W3C//DTD SVG 1.1//EN" "http://www.w3.org/Graphics/SVG/1.1/DTD/svg11.dtd">
<svg version="1.1" id="Layer_1" xmlns="http://www.w3.org/2000/svg" xmlns:xlink="http://www.w3.org/1999/xlink" x="0px" y="0px"
	 viewBox="0 0 14 14" enable-background="new 0 0 14 14" xml:space="preserve">
<path fill="#333333" d="M7.8,4.2C8.2,4.4,8.6,4.6,9,5c0.4,0.4,0.6,0.8,0.8,1.2c0,0.1,0.1,0.1,0.1,0.1h3.9c0,0,0.1,0,0.1,0
	c0,0,0-0.1,0-0.1c-0.2-1.5-0.9-2.9-2-4C10.8,1,9.3,0.3,7.8,0.1c0,0-0.1,0-0.1,0c0,0-0.1,0.1-0.1,0.1v3.9C7.7,4.2,7.7,4.2,7.8,4.2z
	 M13.9,7.7C13.9,7.7,13.9,7.7,13.9,7.7l-4,0c-0.1,0-0.1,0-0.1,0.1C9.8,8,9.7,8.2,9.5,8.5c0,0.1,0,0.1,0,0.2l2.8,2.8c0,0,0.1,0,0.1,0
	c0,0,0,0,0,0c0,0,0.1,0,0.1,0c0.8-1,1.3-2.3,1.5-3.6C14,7.8,14,7.8,13.9,7.7z M8.5,9.6c0,0-0.1-0.1-0.2,0C8,9.7,7.5,9.8,7,9.8
	C6.3,9.8,5.6,9.5,5,9C3.9,7.9,3.9,6.1,5,5c0.3-0.3,0.8-0.6,1.2-0.7c0.1,0,0.1-0.1,0.1-0.1V0.2c0,0,0-0.1,0-0.1c0,0-0.1,0-0.1,0
	C4.6,0.2,3.1,1,2.1,2C0.7,3.4,0,5.1,0,7c0,1.9,0.7,3.6,2.1,4.9c1.3,1.3,3.1,2,4.9,2h0c1.5,0,3-0.5,4.2-1.4c0,0,0-0.1,0.1-0.1
	c0,0,0-0.1,0-0.1L8.5,9.6z"/>
</svg>
