<?xml version="1.0" encoding="utf-8"?>
<!-- Generator: Adobe Illustrator 17.1.0, SVG Export Plug-In . SVG Version: 6.00 Build 0)  -->
<!DOCTYPE svg PUBLIC "-//W3C//DTD SVG 1.1//EN" "http://www.w3.org/Graphics/SVG/1.1/DTD/svg11.dtd">
<svg version="1.1" id="Layer_2" xmlns="http://www.w3.org/2000/svg" xmlns:xlink="http://www.w3.org/1999/xlink" x="0px" y="0px"
	 viewBox="0 0 14 14" enable-background="new 0 0 14 14" xml:space="preserve">
<path d="M13,3V2h-1V1c0,0-4,0-5,2L6,2H1v1c0,0-1,0.1-1,1s0,7,0,7s0,1,1,1s4,0,4,0l1,1h2l1-1h4c0,0,1,0,1-1.1S14,4,14,4S14,3,13,3z
	 M6.5,12l-1-1H2V3h3.5l1,1V12z M7.5,12V4C8.1,1.9,11,2,11,2v8C9,10,7.5,12,7.5,12z M12,11H9.5c0.3-0.5,2-0.5,2-0.5V3H12V11z"/>
</svg>
