<?xml version="1.0" encoding="utf-8"?>
<!-- Generator: Adobe Illustrator 17.1.0, SVG Export Plug-In . SVG Version: 6.00 Build 0)  -->
<!DOCTYPE svg PUBLIC "-//W3C//DTD SVG 1.1//EN" "http://www.w3.org/Graphics/SVG/1.1/DTD/svg11.dtd">
<svg version="1.1" id="Layer_2" xmlns="http://www.w3.org/2000/svg" xmlns:xlink="http://www.w3.org/1999/xlink" x="0px" y="0px"
	 viewBox="0 0 14 14" enable-background="new 0 0 14 14" xml:space="preserve">
<path d="M4.3,7.7C4.3,7.7,4.3,7.7,4.3,7.7L4.3,7.7C4.2,7.7,4.2,7.7,4.3,7.7L4.3,7.7C4.2,7.7,4.2,7.7,4.3,7.7L4.3,7.7
	C4.3,7.7,4.3,7.7,4.3,7.7L4.3,7.7z M9,7.5C9,6.7,8.3,6,7.5,6h-5C1.7,6,1,6.7,1,7.5v3C1,11.3,1.7,12,2.5,12h5C8.3,12,9,11.3,9,10.5
	V7.5z M10,7v4l3,1V6L10,7z M2.9,1.7C2,1.7,1.2,2.4,1.2,3.3S2,5,2.9,5s1.7-0.7,1.7-1.7S3.8,1.7,2.9,1.7z M7.3,1.7
	c-0.9,0-1.7,0.7-1.7,1.7S6.4,5,7.3,5C8.3,5,9,4.3,9,3.3S8.3,1.7,7.3,1.7z"/>
</svg>
