<?xml version="1.0" encoding="utf-8"?>
<!-- Generator: Adobe Illustrator 17.1.0, SVG Export Plug-In . SVG Version: 6.00 Build 0)  -->
<!DOCTYPE svg PUBLIC "-//W3C//DTD SVG 1.1//EN" "http://www.w3.org/Graphics/SVG/1.1/DTD/svg11.dtd">
<svg version="1.1" id="Layer_1" xmlns="http://www.w3.org/2000/svg" xmlns:xlink="http://www.w3.org/1999/xlink" x="0px" y="0px"
	 viewBox="0 0 16 14" enable-background="new 0 0 16 14" xml:space="preserve">
<path d="M10.5,4.7C10.5,6.3,9,7.9,8,7.9c-0.7,0-2.5-1.7-2.5-3.3S6.6,2,8,2S10.5,3,10.5,4.7z M3.1,11.4c0,0.3,0.3,0.6,0.6,0.6h8.5
	c0.3,0,0.6-0.3,0.6-0.6l-0.1-0.8c-0.3-1.3-1-3-3.1-3c-0.1,0-0.8,0.8-1.3,1.3c-0.2,0.2-0.5,0.2-0.7,0C7.2,8.4,6.4,7.6,6.4,7.6
	c-2.2,0-2.9,1.7-3.1,3L3.1,11.4z M12.3,7.7c0.7,0.1,1.9-1.3,1.9-2.5s-0.9-2-1.9-2c-0.3,0-0.6,0.1-0.9,0.2c0.1,0.4,0.2,0.8,0.2,1.2
	c0,0.7-0.3,1.4-0.7,2.1C11,6.7,11.5,7.5,12.3,7.7z M5.1,6.6C4.7,6,4.4,5.3,4.4,4.6c0-0.4,0.1-0.8,0.2-1.2C4.3,3.3,4,3.2,3.7,3.2
	c-1.1,0-1.9,0.7-1.9,2s1.4,2.5,1.9,2.5c0,0,0.1,0,0.1,0C4.4,7.6,5.1,6.6,5.1,6.6z M15.4,10.7c0.3,0,0.6-0.3,0.6-0.6l0-0.3
	c-0.2-1-0.7-2.4-2.4-2.4c0,0-0.4,0.4-0.8,0.8c0.7,0.8,1,1.8,1.1,2.6c0.2,0,0.5,0,0.7,0L15.4,10.7z M0.9,10.7h1.2
	c0.1-0.8,0.4-1.8,1.1-2.6C2.9,7.8,2.5,7.4,2.5,7.4c-1.7,0-2.3,1.4-2.4,2.4L0,10.1c0,0.3,0.3,0.6,0.6,0.6L0.9,10.7z"/>
</svg>
