<?xml version="1.0" encoding="utf-8"?>
<!-- Generator: Adobe Illustrator 17.1.0, SVG Export Plug-In . SVG Version: 6.00 Build 0)  -->
<!DOCTYPE svg PUBLIC "-//W3C//DTD SVG 1.1//EN" "http://www.w3.org/Graphics/SVG/1.1/DTD/svg11.dtd">
<svg version="1.1" id="Layer_1" xmlns="http://www.w3.org/2000/svg" xmlns:xlink="http://www.w3.org/1999/xlink" x="0px" y="0px"
	 viewBox="0 0 14 14" enable-background="new 0 0 14 14" xml:space="preserve">
<path fill="#333333" d="M8,4.5c0.8,0,1.4,0.6,1.4,1.4c0,0.8-0.6,1.4-1.4,1.4c-0.8,0-1.4-0.6-1.4-1.4C6.6,5.2,7.2,4.5,8,4.5z M13.9,6
	l-2.2-2.2c0,0-0.1,0-0.1,0c0,0-0.1,0-0.1,0l-1.3,1.3c0,0,0,0.1,0,0.1c0.1,0.2,0.1,0.5,0.1,0.7c0,0.6-0.2,1.2-0.7,1.6
	C9.2,8,8.6,8.2,8,8.2C7.4,8.2,6.8,8,6.3,7.6c-0.4-0.4-0.7-1-0.7-1.6c0-0.6,0.2-1.2,0.7-1.6c0.4-0.4,1-0.7,1.6-0.7
	c0.3,0,0.5,0,0.8,0.1c0,0,0.1,0,0.1,0l1.3-1.3c0,0,0-0.1,0-0.1c0,0,0-0.1,0-0.1L7.9,0.1c0,0-0.1,0-0.2,0L1.9,5.9c0,0,0,0.1,0,0.2
	l1.8,1.8L0,11.6c0,0,0,0.1,0,0.2L2.3,14c0,0,0.1,0,0.1,0c0,0,0.1,0,0.1,0l3.7-3.6l1.7,1.7c0,0,0.1,0,0.2,0l5.9-5.9
	C13.9,6.2,14,6.1,13.9,6C14,6.1,13.9,6,13.9,6z"/>
</svg>
