<?xml version="1.0" encoding="utf-8"?>
<!-- Generator: Adobe Illustrator 17.1.0, SVG Export Plug-In . SVG Version: 6.00 Build 0)  -->
<!DOCTYPE svg PUBLIC "-//W3C//DTD SVG 1.1//EN" "http://www.w3.org/Graphics/SVG/1.1/DTD/svg11.dtd">
<svg version="1.1" id="Layer_1" xmlns="http://www.w3.org/2000/svg" xmlns:xlink="http://www.w3.org/1999/xlink" x="0px" y="0px"
	 viewBox="0 0 14 14" enable-background="new 0 0 14 14" xml:space="preserve">
<path fill="#333333" d="M7,0.1c-2.6,0-4.7,2.1-4.7,4.7C2.3,7.3,7,14,7,14s4.7-6.6,4.7-9.2S9.6,0.1,7,0.1z M6.9,7.7
	c-1.7,0-3.1-1.4-3.1-3.1c0-1.7,1.4-3.1,3.1-3.1S10,3,10,4.7S8.6,7.7,6.9,7.7z M6.9,2.8C5.9,2.8,5,3.6,5,4.7s0.9,1.9,1.9,1.9
	s1.9-0.9,1.9-1.9C8.9,3.6,8,2.8,6.9,2.8z"/>
</svg>
