<?xml version="1.0" encoding="utf-8"?>
<!-- Generator: Adobe Illustrator 17.1.0, SVG Export Plug-In . SVG Version: 6.00 Build 0)  -->
<!DOCTYPE svg PUBLIC "-//W3C//DTD SVG 1.1//EN" "http://www.w3.org/Graphics/SVG/1.1/DTD/svg11.dtd">
<svg version="1.1" id="Layer_1" xmlns="http://www.w3.org/2000/svg" xmlns:xlink="http://www.w3.org/1999/xlink" x="0px" y="0px"
	 viewBox="0 0 14 14" enable-background="new 0 0 14 14" xml:space="preserve">
<path d="M8.1,5.7c0,0,0-0.1,0-0.1c0-0.4-0.6-1-0.9-1.3C7.1,4.2,7.1,4.1,7.1,4l0.2-0.2l0,0C7.5,3.3,7.6,3,7.6,3
	c0-0.1-0.4-0.7-0.4-0.7c0-0.1,0-0.2,0.1-0.2l0.4-0.1c0,0,0.1,0,0.1-0.1l0.2-0.3c0.1-0.1,0.1-0.2,0-0.3L6.3,0.1C6.2,0,6.1,0,6,0.1
	L5.8,0.3c0,0-0.1,0.1-0.1,0.1l0,0.8c0,0.1-0.1,0.2-0.2,0.2H4.9c-0.1,0-0.1,0-0.2,0.1L2,5.9C2,5.9,2,6,2,6.1l0.3,0.3
	c0,0.1,0.1,0.1,0,0.2L2,7.1c0,0.1,0,0.2,0.1,0.2l1.3,0.8c0.1,0.1,0.2,0,0.3,0l0.2-0.3c0-0.1,0.1-0.1,0.2-0.1l0.4,0
	c0.1,0,0.1,0,0.2-0.1L5,7.2c0,0,0.1-0.1,0.1-0.1c0.7,0.3,2.1,0,2.1,0s2.1,5.7-3.2,4.6c-0.4-0.1-0.7-0.3-0.9-0.5
	c-0.1-0.2,0-0.4,0.3-0.3l0,0c0.1,0,0.2,0,0.3-0.1L4,10.3c0-0.1,0-0.2-0.1-0.3L0.7,8.2c-0.1-0.1-0.2,0-0.3,0.1L0.1,8.7
	c-0.1,0.1,0,0.2,0.1,0.3C0.3,9,0.5,9.2,0.6,9.3c0.1,0,0.1,0.1,0.1,0.2c-0.1,1.9,1.2,2.5,2,3.1c0.1,0.1,0.1,0.3-0.1,0.4
	c-0.8,0.2-0.5,0.8-0.3,1c0,0,0.1,0.1,0.2,0.1h6.4c0.1,0,0.1,0,0.2-0.1C11.7,10,8.6,6.2,8.1,5.7z M6.4,6.3C6,6.3,5.7,6,5.7,5.6
	c0-0.4,0.3-0.7,0.7-0.7s0.7,0.3,0.7,0.7C7.1,6,6.8,6.3,6.4,6.3z M12.3,7.1c0,0,0-0.1,0-0.1c0-0.3-0.5-0.9-0.7-1.1
	c-0.1-0.1-0.1-0.1,0-0.2l0.1-0.2l0,0c0.2-0.4,0.2-0.6,0.2-0.6c0-0.1-0.4-0.6-0.4-0.6c0-0.1,0-0.2,0.1-0.2L12,4c0,0,0.1,0,0.1-0.1
	l0.2-0.2c0.1-0.1,0-0.2,0-0.2l-1.4-1c-0.1,0-0.2,0-0.2,0l-0.2,0.2c0,0-0.1,0.1-0.1,0.1l0,0.7c0,0.1-0.1,0.2-0.2,0.2H9.7
	c-0.1,0-0.1,0-0.1,0.1L8.6,5.4c0,0,0,0.1,0,0.1c0.2,0.3,1.1,1.3,1.7,2.8c0.6,0.1,1.3,0,1.3,0s1.1,3.5-0.8,3.9
	c-0.1,0.6-0.3,1.2-0.7,1.8H13c0.1,0,0.1,0,0.1-0.1C15.3,10.7,12.7,7.5,12.3,7.1z M10.9,7.6c-0.3,0-0.6-0.3-0.6-0.6
	c0-0.3,0.3-0.6,0.6-0.6c0.3,0,0.6,0.3,0.6,0.6C11.5,7.4,11.2,7.6,10.9,7.6z"/>
</svg>
