<?xml version="1.0" encoding="utf-8"?>
<!-- Generator: Adobe Illustrator 18.0.0, SVG Export Plug-In . SVG Version: 6.00 Build 0)  -->
<!DOCTYPE svg PUBLIC "-//W3C//DTD SVG 1.1//EN" "http://www.w3.org/Graphics/SVG/1.1/DTD/svg11.dtd">
<svg version="1.1" id="Layer_2" xmlns="http://www.w3.org/2000/svg" xmlns:xlink="http://www.w3.org/1999/xlink" x="0px" y="0px"
	 viewBox="0 0 14 14" enable-background="new 0 0 14 14" xml:space="preserve">
<path d="M12,3.3v5.5c0,0.1,0,0.1-0.1,0.2c0,0-0.1,0.1-0.2,0.1H6v1.5c0,0.2-0.1,0.4-0.3,0.5c-0.2,0.1-0.4,0.1-0.5-0.1l-3-2.5
	C2.1,8.3,2,8.2,2,8c0-0.2,0.1-0.3,0.2-0.4l3-2.5C5.3,5,5.5,5,5.7,5.1C5.9,5.1,6,5.3,6,5.5V7h4V4.5c0-0.1,0-0.1,0.1-0.2l1.5-1.3
	C11.7,3,11.7,3,11.9,3C12,3.1,12,3.2,12,3.3z"/>
</svg>
