<?xml version="1.0" encoding="utf-8"?>
<!-- Generator: Adobe Illustrator 17.1.0, SVG Export Plug-In . SVG Version: 6.00 Build 0)  -->
<!DOCTYPE svg PUBLIC "-//W3C//DTD SVG 1.1//EN" "http://www.w3.org/Graphics/SVG/1.1/DTD/svg11.dtd">
<svg version="1.1" id="Layer_1" xmlns="http://www.w3.org/2000/svg" xmlns:xlink="http://www.w3.org/1999/xlink" x="0px" y="0px"
	 viewBox="0 0 13 14" enable-background="new 0 0 13 14" xml:space="preserve">
<path d="M6,3.5C6,3.8,5.8,4,5.5,4h-3C2.2,4,2,3.8,2,3.5v-3C2,0.2,2.2,0,2.5,0h3C5.8,0,6,0.2,6,0.5V3.5z M6,5.5C6,5.2,5.8,5,5.5,5h-3
	C2.2,5,2,5.2,2,5.5v3C2,8.8,2.2,9,2.5,9h3C5.8,9,6,8.8,6,8.5V5.5z M6,10.5C6,10.2,5.8,10,5.5,10h-3C2.2,10,2,10.2,2,10.5v3
	C2,13.8,2.2,14,2.5,14h3C5.8,14,6,13.8,6,13.5V10.5z M11,0.5C11,0.2,10.8,0,10.5,0h-3C7.2,0,7,0.2,7,0.5v3C7,3.8,7.2,4,7.5,4h3
	C10.8,4,11,3.8,11,3.5V0.5z M11,5.5C11,5.2,10.8,5,10.5,5h-3C7.2,5,7,5.2,7,5.5v3C7,8.8,7.2,9,7.5,9h3C10.8,9,11,8.8,11,8.5V5.5z
	 M11,10.5c0-0.3-0.2-0.5-0.5-0.5h-3C7.2,10,7,10.2,7,10.5v3C7,13.8,7.2,14,7.5,14h3c0.3,0,0.5-0.2,0.5-0.5V10.5z"/>
</svg>
