<?xml version="1.0" encoding="utf-8"?>
<!-- Generator: Adobe Illustrator 17.1.0, SVG Export Plug-In . SVG Version: 6.00 Build 0)  -->
<!DOCTYPE svg PUBLIC "-//W3C//DTD SVG 1.1//EN" "http://www.w3.org/Graphics/SVG/1.1/DTD/svg11.dtd">
<svg version="1.1" id="Layer_3" xmlns="http://www.w3.org/2000/svg" xmlns:xlink="http://www.w3.org/1999/xlink" x="0px" y="0px"
	 viewBox="0 0 14 14" enable-background="new 0 0 14 14" xml:space="preserve">
<path d="M12,3c0-0.6-0.5-1-1-1H3C2.5,2,2,2.5,2,3V11c0,0.6,0.5,1,1,1H11c0.6,0,1-0.5,1-1V3z M6.9,4.5c0.4,0,0.8,0.3,0.8,0.8
	C7.7,5.7,7.3,6,6.9,6C6.5,6,6.2,5.7,6.2,5.3C6.2,4.8,6.5,4.5,6.9,4.5z M5,4.5c0.4,0,0.8,0.3,0.8,0.8C5.8,5.7,5.4,6,5,6
	S4.2,5.7,4.2,5.3C4.2,4.8,4.6,4.5,5,4.5z M8,8.8c0,0.5-0.2,0.7-0.7,0.7H4.8C4.4,9.5,4,9.3,4,8.8V7.4c0-0.6,0.3-0.9,0.8-0.9h2.5
	C7.8,6.5,8,6.9,8,7.4V8.8z M10.5,9.6l-2-0.8V7.1l2-0.8V9.6z M1,10H0V4h1V10z M14,10h-1V4h1V10z"/>
</svg>
