<?xml version="1.0" encoding="utf-8"?>
<!-- Generator: Adobe Illustrator 17.1.0, SVG Export Plug-In . SVG Version: 6.00 Build 0)  -->
<!DOCTYPE svg PUBLIC "-//W3C//DTD SVG 1.1//EN" "http://www.w3.org/Graphics/SVG/1.1/DTD/svg11.dtd">
<svg version="1.1" id="Layer_2" xmlns="http://www.w3.org/2000/svg" xmlns:xlink="http://www.w3.org/1999/xlink" x="0px" y="0px"
	 viewBox="0 0 14 14" enable-background="new 0 0 14 14" xml:space="preserve">
<path d="M7,1.4L5.3,4.9L5.1,5.2l-0.3,0L1,5.8l2.8,2.7L4,8.7l0,0.3l-0.7,3.9L6.8,11L7,10.9L7.2,11l3.5,1.8L10,8.9l0-0.3l0.2-0.2
	L13,5.8L9.1,5.2l-0.3,0L8.7,4.9L7,1.4 M7,0.3l2.2,4.4l4.9,0.7l-3.5,3.4l0.8,4.9L7,11.4l-4.4,2.3l0.8-4.9l-3.5-3.4l4.9-0.7L7,0.3
	L7,0.3z M7,9.7L4.6,11l0.5-2.7L3.1,6.5l2.7-0.4L7,3.7l1.2,2.4l2.7,0.4L8.9,8.3L9.4,11L7,9.7z"/>
</svg>
