<?xml version="1.0" encoding="utf-8"?>
<!-- Generator: Adobe Illustrator 17.1.0, SVG Export Plug-In . SVG Version: 6.00 Build 0)  -->
<!DOCTYPE svg PUBLIC "-//W3C//DTD SVG 1.1//EN" "http://www.w3.org/Graphics/SVG/1.1/DTD/svg11.dtd">
<svg version="1.1" id="Layer_1" xmlns="http://www.w3.org/2000/svg" xmlns:xlink="http://www.w3.org/1999/xlink" x="0px" y="0px"
	 viewBox="0 0 14 14" enable-background="new 0 0 14 14" xml:space="preserve">
<path fill="#333333" d="M4.1,6c-1.6,0-3,1.3-3,3s1.3,3,3,3s3-1.3,3-3C7,7.4,5.7,6,4.1,6z M5.8,2.1C5.8,2.1,5.8,2,5.8,2.1l-1.6-2
	c0,0-0.1,0-0.1,0h0c0,0-0.1,0-0.1,0L2.4,2c0,0,0,0,0,0.1v0.3c0,0.1,0,0.1,0.1,0.1h0.9v1.9c0,0.1,0,0.1,0.1,0.1h1.3
	c0.1,0,0.1-0.1,0.1-0.1V2.5h0.9c0,0,0.1,0,0.1,0c0,0,0,0,0-0.1L5.8,2.1z M11,7C11,7,11,7,11,7l0.9-2.4c0,0,0-0.1,0-0.1l0,0
	c0,0,0-0.1-0.1-0.1L9.3,4c0,0,0,0-0.1,0L9,4.2c-0.1,0-0.1,0.1,0,0.2l0.4,0.7l-1.7,1c-0.1,0-0.1,0.1,0,0.2l0.7,1.1
	c0,0.1,0.1,0.1,0.2,0l1.7-1l0.4,0.7c0,0,0,0,0.1,0c0,0,0.1,0,0.1,0L11,7z M9.2,13.9C9.3,13.9,9.3,13.9,9.2,13.9l2.6-0.4
	c0,0,0.1,0,0.1-0.1l0,0c0,0,0-0.1,0-0.1L11,11c0,0,0,0,0-0.1l-0.3-0.2c-0.1,0-0.1,0-0.2,0l-0.4,0.7l-1.7-1c-0.1,0-0.1,0-0.2,0
	l-0.7,1.1c0,0.1,0,0.1,0,0.1l1.7,1l-0.4,0.7c0,0,0,0.1,0,0.1c0,0,0,0.1,0.1,0.1L9.2,13.9z"/>
</svg>
