<?xml version="1.0" encoding="utf-8"?>
<!-- Generator: Adobe Illustrator 17.1.0, SVG Export Plug-In . SVG Version: 6.00 Build 0)  -->
<!DOCTYPE svg PUBLIC "-//W3C//DTD SVG 1.1//EN" "http://www.w3.org/Graphics/SVG/1.1/DTD/svg11.dtd">
<svg version="1.1" id="Layer_3" xmlns="http://www.w3.org/2000/svg" xmlns:xlink="http://www.w3.org/1999/xlink" x="0px" y="0px"
	 viewBox="0 0 14 14" enable-background="new 0 0 14 14" xml:space="preserve">
<path d="M12.1,4.3c0.2-0.2,0.2-0.5,0-0.7l-0.7-0.7c-0.2-0.2-0.5-0.2-0.7,0L10,3.6C9.9,3.7,9.9,3.8,9.9,3.9C9.1,3.4,8.2,3,7.3,3V2.5
	h0.2C7.8,2.5,8,2.3,8,2V1c0-0.3-0.2-0.5-0.5-0.5h-1C6.3,0.5,6,0.7,6,1v1c0,0.3,0.2,0.5,0.5,0.5h0.2V3C4.1,3.1,2,5.3,2,8
	c0,2.8,2.2,5,5,5s5-2.2,5-5c0-1.1-0.3-2-0.9-2.8c0.1,0,0.2-0.1,0.2-0.1L12.1,4.3z M7.3,12v-1H6.8v1c-2-0.1-3.6-1.7-3.7-3.7h1V7.8H3
	c0.1-2,1.7-3.7,3.8-3.8v1h0.5V4c2,0.1,3.6,1.8,3.7,3.8h-0.9v0.5H11C10.9,10.3,9.3,11.9,7.3,12z M9.3,5.7L8,7.7C8,7.8,8,7.9,8,8
	c0,0.6-0.4,1-1,1S6,8.5,6,8c0-0.6,0.4-1,1-1c0.1,0,0.2,0,0.2,0L9.3,5.7z"/>
</svg>
