<?xml version="1.0" encoding="utf-8"?>
<!-- Generator: Adobe Illustrator 17.1.0, SVG Export Plug-In . SVG Version: 6.00 Build 0)  -->
<!DOCTYPE svg PUBLIC "-//W3C//DTD SVG 1.1//EN" "http://www.w3.org/Graphics/SVG/1.1/DTD/svg11.dtd">
<svg version="1.1" id="Layer_3" xmlns="http://www.w3.org/2000/svg" xmlns:xlink="http://www.w3.org/1999/xlink" x="0px" y="0px"
	 viewBox="0 0 14 14" enable-background="new 0 0 14 14" xml:space="preserve">
<path d="M10.3,6.2H6.7V3h3.5V6.2z M3,12.5C3,13.3,3.7,14,4.5,14h1.7v-3.2H3V12.5z M6.2,3H4.5C3.7,3,3,3.7,3,4.5v1.7h3.2V3z
	 M6.7,10.8V14h3.5v-3.2h-3L6.9,11L6.7,10.8z M10.8,14h1.8c0.8,0,1.5-0.7,1.5-1.5v-1.7h-3.2V14z M10.3,10.3V8.5l-2.4,1.8H10.3z
	 M10.1,7.1c0,0,0.1-0.1,0.2-0.1V6.7H6.7v1.9l0.4,0.7L10.1,7.1z M12.5,3h-1.8v3.2H14V4.5C14,3.7,13.3,3,12.5,3z M12,7.2l-1.3,0.9v2.2
	H14V6.7h-2.8C11.9,6.9,12,7.2,12,7.2z M6.2,10L5.2,8.3l0.9-0.7l0.1,0.2V6.7H3v3.5h3.2L6.2,10L6.2,10L6.2,10z M7.2,0H3.8v2h3.5V0z
	 M0,9.5C0,10.3,0.7,11,1.5,11H2V7.8H0V9.5z M2,3c0.2-1,1-1,1-1V0H1.5C0.7,0,0,0.7,0,1.5V3H2z M11,2V1.5C11,0.7,10.3,0,9.5,0H7.8v2
	 M0,3.8v3.5h2V3.8H0z"/>
</svg>
