<?xml version="1.0" encoding="utf-8"?>
<!-- Generator: Adobe Illustrator 17.1.0, SVG Export Plug-In . SVG Version: 6.00 Build 0)  -->
<!DOCTYPE svg PUBLIC "-//W3C//DTD SVG 1.1//EN" "http://www.w3.org/Graphics/SVG/1.1/DTD/svg11.dtd">
<svg version="1.1" id="Layer_3" xmlns="http://www.w3.org/2000/svg" xmlns:xlink="http://www.w3.org/1999/xlink" x="0px" y="0px"
	 viewBox="0 0 14 14" enable-background="new 0 0 14 14" xml:space="preserve">
<path d="M10,0H2C1.4,0,1,0.4,1,1v9h1v2l2-2h6c0.6,0,1-0.4,1-1V1C11,0.4,10.6,0,10,0z M10,8c0,0.6-0.4,1-1,1H3C2.4,9,2,8.6,2,8V2
	c0-0.6,0.4-1,1-1h6c0.6,0,1,0.4,1,1V8z M6,12c-0.6,0-1-0.4-1-1h7l0-8c0.6,0,1,0.4,1,1v8h-1v2l-2-2H6z"/>
</svg>
