<?xml version="1.0" encoding="utf-8"?>
<!-- Generator: Adobe Illustrator 17.1.0, SVG Export Plug-In . SVG Version: 6.00 Build 0)  -->
<!DOCTYPE svg PUBLIC "-//W3C//DTD SVG 1.1//EN" "http://www.w3.org/Graphics/SVG/1.1/DTD/svg11.dtd">
<svg version="1.1" id="Layer_1_copy" xmlns="http://www.w3.org/2000/svg" xmlns:xlink="http://www.w3.org/1999/xlink" x="0px"
	 y="0px" viewBox="0 0 14 14" enable-background="new 0 0 14 14" xml:space="preserve">
<path d="M10,5.7c0,0,0-0.1,0-0.1c0-0.4-0.6-1-0.9-1.3C9,4.2,9,4,9,4l0.2-0.2l0,0C9.4,3.2,9.5,3,9.5,3C9.5,2.9,9,2.3,9,2.3
	c0-0.1,0-0.2,0.1-0.2l0.4-0.1c0,0,0.1,0,0.1-0.1l0.2-0.3c0.1-0.1,0.1-0.2,0-0.3L8.2,0.1C8.1,0,8,0,7.9,0.1L7.7,0.3
	c0,0-0.1,0.1-0.1,0.1l0,0.8c0,0.1-0.1,0.2-0.2,0.2H6.8c-0.1,0-0.1,0-0.2,0.1L3.9,5.8c-0.1,0.1,0,0.2,0,0.3l0.3,0.3
	c0,0.1,0.1,0.1,0,0.2L3.9,7.1c0,0.1,0,0.2,0.1,0.2l1.3,0.8c0.1,0.1,0.2,0,0.3,0l0.2-0.3c0-0.1,0.1-0.1,0.2-0.1l0.4,0
	c0.1,0,0.1,0,0.2-0.1l0.4-0.4c0,0,0.1-0.1,0.1-0.1c0.7,0.3,2.1,0,2.1,0s2.1,5.7-3.2,4.6c-0.4-0.1-0.7-0.3-0.9-0.5
	c-0.1-0.2,0-0.4,0.2-0.3l0,0c0.1,0,0.2,0,0.3-0.1l0.2-0.5c0-0.1,0-0.2-0.1-0.3L2.6,8.2c-0.1-0.1-0.2,0-0.3,0.1L2.1,8.7
	C2,8.8,2,8.9,2.1,8.9C2.2,9,2.4,9.2,2.5,9.3c0.1,0,0.1,0.1,0.1,0.2c0,1.9,1.1,2.6,2,3.1c0.1,0.1,0.1,0.3-0.1,0.4
	c-0.8,0.2-0.5,0.8-0.3,1c0,0,0.1,0.1,0.2,0.1h6.4c0.1,0,0.1,0,0.2-0.1C13.5,10,10.4,6.2,10,5.7z M8.3,6.3C7.9,6.3,7.6,6,7.6,5.6
	c0-0.4,0.3-0.7,0.7-0.7c0.4,0,0.7,0.3,0.7,0.7C8.9,6,8.6,6.3,8.3,6.3z"/>
</svg>
