<?xml version="1.0" encoding="utf-8"?>
<!-- Generator: Adobe Illustrator 17.1.0, SVG Export Plug-In . SVG Version: 6.00 Build 0)  -->
<!DOCTYPE svg PUBLIC "-//W3C//DTD SVG 1.1//EN" "http://www.w3.org/Graphics/SVG/1.1/DTD/svg11.dtd">
<svg version="1.1" id="Layer_1" xmlns="http://www.w3.org/2000/svg" xmlns:xlink="http://www.w3.org/1999/xlink" x="0px" y="0px"
	 viewBox="0 0 14 14" enable-background="new 0 0 14 14" xml:space="preserve">
<path d="M3,11.5C3,11.8,2.8,12,2.5,12h-1C1.2,12,1,11.8,1,11.5v-8C1,3.2,1.2,3,1.5,3h1C2.8,3,3,3.2,3,3.5V11.5z M12,3.5
	C12,3.2,11.8,3,11.5,3h-1C10.2,3,10,3.2,10,3.5v8c0,0.3,0.2,0.5,0.5,0.5h1c0.3,0,0.5-0.2,0.5-0.5V3.5z M5,5.2C5,5.1,4.9,5,4.8,5H4.2
	C4.1,5,4,5.1,4,5.2v0.5C4,5.9,4.1,6,4.2,6h0.5C4.9,6,5,5.9,5,5.8V5.2z M7,5.2C7,5.1,6.9,5,6.8,5H6.2C6.1,5,6,5.1,6,5.2v0.5
	C6,5.9,6.1,6,6.2,6h0.5C6.9,6,7,5.9,7,5.8V5.2z M7,7.2C7,7.1,6.9,7,6.8,7H6.2C6.1,7,6,7.1,6,7.2v0.5C6,7.9,6.1,8,6.2,8h0.5
	C6.9,8,7,7.9,7,7.8V7.2z M7,9.2C7,9.1,6.9,9,6.8,9H6.2C6.1,9,6,9.1,6,9.2v0.5C6,9.9,6.1,10,6.2,10h0.5C6.9,10,7,9.9,7,9.8V9.2z
	 M9,9.2C9,9.1,8.9,9,8.8,9H8.2C8.1,9,8,9.1,8,9.2v0.5C8,9.9,8.1,10,8.2,10h0.5C8.9,10,9,9.9,9,9.8V9.2z"/>
</svg>
