<svg xmlns="http://www.w3.org/2000/svg" xmlns:xlink="http://www.w3.org/1999/xlink" version="1.1" x="0px" y="0px" viewBox="0 0 400 660" enable-background="new 0 0 400 660" xml:space="preserve"><style>.style0{fill:	#333333;}.style1{fill:	#F9F9F9;}.style10{fill:	#DDDDDC;}.style2{fill:	#F69021;}.style3{stop-color:	#F69353;}.style4{stop-color:	#F37521;}.style5{stop-color:	#D4622A;}.style6{fill:	url(#SVGID_1_);}.style7{fill:	url(#SVGID_2_);}.style8{fill:	#E17F26;}.style9{fill:	#EFEFEF;}</style><path d="M199.8 1c-37 0-67.1 29.8-67.1 66.5c0 19.6 8.6 37.2 22.3 49.4h-26.1c-15.9 0-28.8 12.8-28.8 28.5v20.7 c0 6.5 2.3 12.6 6 17.4c-10 0.8-18.6 8-20.7 17.9L33.8 440c-19.7 13.8-25.4 31.4-25.4 31.4C3.5 484.5 1 498 1 511.5 c0 40 20.9 77.4 59 105.1c36.7 26.8 88.4 41.5 139.8 41.5s103.1-14.8 139.8-41.5c38-27.8 59-65.1 59-105.1c0-13.5-2.5-27-7.4-40.1 c0 0-5.8-17.5-25.4-31.4l-51.5-238.7c-2.1-9.9-10.6-17.1-20.7-17.9c3.8-4.8 6-10.8 6-17.4v-20.7c0-15.7-12.9-28.5-28.8-28.5h-26.1 c13.6-12.2 22.3-29.8 22.3-49.4C266.9 30.8 236.8 1 199.8 1" class="style0"/><path d="M199.7 56.4c5.1 0 9.3 4.1 9.3 9.2c0 5.1-4.2 9.2-9.3 9.2s-9.3-4.1-9.3-9.2 C190.5 60.5 194.6 56.4 199.7 56.4z" class="style1"/><g><path d="M199.7 120.6c29.3 0 53-23.7 53-53s-23.7-53-53-53s-53 23.7-53 53S170.5 120.6 199.7 120.6z M199.7 43.6 c13.3 0 24 10.8 24 24s-10.8 24-24 24s-24-10.8-24-24S186.4 43.6 199.7 43.6z" class="style2"/><g><path d="M355.7 467.2l-55.1-260.4c-0.8-3.9-4.3-6.7-8.3-6.7H112.9c-4 0-7.4 2.8-8.3 6.7L49.6 467.2c0 0 0 0 0 0 c1.3 39.7 69.3 86.4 153.1 88C276.3 556.6 354 507 355.7 467.2C355.7 467.2 355.7 467.2 355.7 467.2z M148.1 237.1H266 c1.8 0 2.8 2.6 1.6 4.2l-62.8 63.8c-1 1.3-2.8 1.3-3.8 0l-54.5-63.8C145.2 239.7 146.2 237.1 148.1 237.1z M94 424.8L124.3 283 c0.5-2.3 3.2-3.2 4.8-1.5l49.5 59.3c1.3 1.4 1.3 3.6 0 5l-79.7 82C96.7 429.9 93.3 427.9 94 424.8z M294.4 486 c-19.1 14.1-97 62.7-183.4 0c-2.5-1.8-2.7-5.8-0.5-8.2l88.7-95.6c1.9-2.1 5.1-2.1 7 0l88.6 95.7C297 480.2 296.8 484.2 294.4 486z M313.3 430.9l-80.1-82.4c-1.3-1.3-1.3-3.4 0-4.8l50.6-58.4c1.5-1.6 4.1-0.7 4.6 1.5L318 428.1C318.7 431.1 315.4 433 313.3 430.9 z" class="style2"/><radialGradient cx="118.1" cy="344.7" r="467.5" gradientUnits="userSpaceOnUse"><stop offset="0" class="style3"/><stop offset="0.5" class="style4"/><stop offset="1" class="style5"/></radialGradient><path d="M49.1 467.6c0.2 0 0.4-0.2 0.5-0.4c0-0.4-0.1-0.8-0.1-1.1L49.1 467.6z" class="style6"/><radialGradient cx="118.1" cy="344.7" r="467.5" gradientUnits="userSpaceOnUse"><stop offset="0" class="style3"/><stop offset="0.5" class="style4"/><stop offset="1" class="style5"/></radialGradient><path d="M355.8 466.1c0 0.4 0 0.8-0.1 1.1c0.1 0.2 0.2 0.4 0.5 0.4L355.8 466.1z" class="style7"/></g><path d="M271.2 132.5H133.7c-7.9 0-14.3 6.4-14.3 14.3v21c0 7.9 6.4 14.3 14.3 14.3h137.5c7.9 0 14.3-6.4 14.3-14.3 v-21C285.6 138.9 279.2 132.5 271.2 132.5z" class="style2"/><g><path d="M378.8 470.1C366 514.3 304.2 576.5 202.6 576c-101.4-0.5-163.9-61.4-176.1-104.8c-4 11-6.1 22.6-6.1 34.5 c0 74.3 81.7 134.5 182.5 134.5c100.8 0 182.5-60.2 182.5-134.5C385.4 493.4 383.1 481.5 378.8 470.1z" class="style2"/></g></g><g><path d="M328.6 536.4c27.1-20.4 44.1-45.4 50.2-66.3c4.2 11.4 6.5 23.3 6.5 35.7c0 74.3-81.7 134.5-182.5 134.5 c-72.5 0-135.2-31.2-164.6-76.4c0 0 74.8 77.7 192.9 61.4S328.6 536.4 328.6 536.4z" class="style8"/></g><path d="M67 503.1c25.6 27.6 76.7 51 135.6 52.1c73.7 1.4 151.4-48.2 153.1-87.9c0 0 0 0 0 0l-55.1-260.4 c-0.8-3.9-4.3-6.7-8.3-6.7h-16.9c0 0 7.2 1.5 14.5 29.5c7.2 28 55.3 241.3 42.5 254.6C216 604 67 503.1 67 503.1z" class="style8"/><path d="M200.9 305.1l-54.5-63.8c-1.2-1.5-0.2-4.2 1.6-4.2H266c1.8 0 2.8 2.6 1.6 4.2c1.2-1.2 1.8-2.7 2-4.3 c0.5-2.9-1.9-5.6-4.9-5.6H137.6c-2.7 0-4.2 3.2-2.4 5.3C143.6 246.4 164.4 269.8 200.9 305.1z" class="style8"/><path d="M94.1 426.9c-0.2-0.6-0.3-1.3-0.2-2.1L124.3 283c0.5-2.3 3.2-3.2 4.8-1.5l-10.6-5.7L88.8 414.7 c-0.9 4.1 0.6 8.3 3.8 10.9L94.1 426.9z" class="style8"/><path d="M199.8 517.3c-26.8-0.3-57.2-8.4-88.7-31.3c-2.5-1.8-2.7-5.8-0.5-8.2l88.7-95.6c1.9-2.1 5.1-2.1 7 0 l17.5 18.9c-8.6-11.6-15.7-20.2-19.9-25.1c-2.1-2.5-5.9-2.5-8.2-0.2l-93.9 100.5c-2 2.1-2 5.4 0 7.5 C110.3 492.9 137.4 515 199.8 517.3z" class="style8"/><path d="M313.3 430.9l-80.1-82.4c-1.3-1.3-1.3-3.4 0-4.8l50.6-58.4c1.5-1.6 4.1-0.7 4.6 1.5l-1.3-6 c-0.6-2.8-4.2-3.7-6.1-1.5L227 340.9c-1.9 2.1-1.8 5.3 0.1 7.4C234.4 356.3 256.4 378.9 313.3 430.9z" class="style8"/><path d="M231.4 25c5.8 8.7 13.2 22.6 13.2 33.8c0 34.8-16 54.5-54.5 54.5c-9.6 0-22.2-6.1-30.1-10.5l0.1-0.1 c9.7 10.9 23.9 17.8 39.6 17.8c29.3 0 53-23.7 53-53C252.7 50.2 244.3 34.7 231.4 25z" class="style8"/><path d="M133.7 182.2l137.5 0c7.9 0 14.3-6.4 14.3-14.3v-21c0-7.9-6.4-14.3-14.3-14.3l1.6 7c0.3 1.5 0.5 2.9 0.5 4.4 l0 19c0 6.8-5.1 12.4-11.8 13.1C236.7 178.7 177.6 180.9 133.7 182.2z" class="style8"/><path d="M181.6 83.7c-3.9-4.3-6-9.9-6-16.1c0-13.3 10.8-24 24-24c6.6 0 12.5 2.5 16.8 6.9 c-4.4-6.8-12.2-11.4-20.9-11.4c-13.6 0-24.6 11-24.6 24.6C171.1 71.9 175.4 79.2 181.6 83.7z" class="style8"/><path d="M76.1 342c-0.3 1.2 7.2 3.9 16.7 5.9s17.4 2.7 17.7 1.4l5.7-28.2c-0.3 1.2-8.2 0.6-17.7-1.4 s-17-4.7-16.7-5.9L76.1 342z" class="style9"/><path d="M102.7 349.6c4.5 0.5 7.6 0.5 7.7-0.3l5.7-28.2c-0.2 0.7-3.1 0.8-7.4 0.3L102.7 349.6z" class="style10"/><path d="M329 340.8c0.2 1-6 3.2-13.8 4.9c-7.9 1.7-13.9 2.3-14.2 1.2l-5.2-25.1c0.2 1 6.8 0.5 14.6-1.2 c7.9-1.7 13.5-3.9 13.3-4.9L329 340.8z" class="style9"/><path d="M315.6 345.7c7.6-1.7 13.6-3.8 13.4-4.8l-5.3-25c0.2 1-5.4 3.2-13.3 4.9L315.6 345.7z" class="style10"/></svg>